<?xml version="1.0" standalone="no"?>
<!DOCTYPE svg PUBLIC "-//W3C//DTD SVG 20010904//EN"
 "http://www.w3.org/TR/2001/REC-SVG-20010904/DTD/svg10.dtd">
<svg version="1.0" xmlns="http://www.w3.org/2000/svg"
 width="500.000000pt" height="500.000000pt" viewBox="0 0 500.000000 500.000000"
 preserveAspectRatio="xMidYMid meet">
<metadata>
Created by potrace 1.11, written by Peter Selinger 2001-2013
</metadata>
<g transform="translate(0.000000,500.000000) scale(0.100000,-0.100000)"
fill="#000000" stroke="none">
<path d="M3775 3075 c53 -162 24 -309 -86 -429 -84 -92 -176 -128 -369 -143
-86 -7 -95 -10 -98 -29 -6 -43 21 -54 128 -54 160 0 264 42 359 146 84 91 121
184 121 300 0 70 -26 180 -51 214 -9 12 -10 11 -4 -5z"/>
<path d="M654 2960 c-12 -5 -25 -14 -29 -20 -4 -6 -18 -15 -31 -20 -29 -11
-52 -60 -82 -175 -11 -44 -45 -172 -75 -285 -62 -231 -70 -270 -59 -286 15
-23 54 -36 89 -29 36 6 45 20 97 148 l15 38 33 -17 c18 -9 56 -35 83 -58 110
-93 118 -96 158 -85 45 12 46 23 11 121 -31 85 -76 155 -110 170 -26 12 -32
28 -11 28 51 0 201 111 232 171 31 58 13 112 -41 125 -27 7 -74 -18 -169 -90
-32 -25 -61 -43 -63 -41 -2 2 26 60 63 129 70 133 74 154 29 174 -29 14 -109
15 -140 2z"/>
<path d="M1314 2931 c-105 -48 -308 -363 -388 -603 -33 -96 -33 -122 0 -155
45 -45 114 -18 165 64 12 18 28 33 38 33 9 0 25 6 36 13 11 8 33 22 49 33 l29
18 -6 -71 c-8 -82 -1 -93 66 -100 72 -8 83 9 113 172 15 77 38 216 53 308 27
164 27 169 9 192 -10 13 -18 36 -18 52 0 52 -78 76 -146 44z m-43 -396 l-17
-110 -37 -3 -37 -3 21 53 c12 29 28 71 35 93 15 40 43 90 48 83 2 -1 -4 -52
-13 -113z"/>
<path d="M2380 2919 c-108 -42 -200 -134 -265 -261 -69 -137 -85 -318 -35
-405 57 -102 222 -122 374 -46 65 33 150 114 175 169 28 59 29 146 2 173 -28
28 -86 36 -151 23 -105 -22 -140 -78 -75 -119 19 -13 49 -23 67 -23 l31 0 -24
-26 c-65 -71 -192 -70 -220 2 -28 74 76 238 179 281 30 12 37 12 58 -2 13 -8
24 -22 24 -29 0 -29 85 -36 125 -10 47 31 64 155 29 215 -34 58 -66 74 -157
76 -64 2 -94 -2 -137 -18z"/>
<path d="M2005 2906 c-42 -18 -82 -61 -95 -102 -7 -19 -27 -69 -45 -111 l-33
-77 -7 50 c-12 83 -54 203 -75 214 -53 28 -104 -10 -154 -113 -66 -135 -168
-545 -144 -575 16 -19 92 -10 119 14 32 29 70 100 100 184 l27 75 7 -50 c14
-102 38 -188 56 -206 23 -23 46 -24 99 -3 52 21 76 67 155 294 32 91 69 190
82 220 27 62 39 180 20 192 -19 12 -79 8 -112 -6z"/>
<path d="M3116 2839 c-45 -36 -30 -95 30 -113 30 -9 74 28 74 62 0 33 -8 45
-37 61 -30 15 -36 14 -67 -10z"/>
</g>
</svg>
